<?xml version="1.0" standalone="no"?>
<!DOCTYPE svg PUBLIC "-//W3C//DTD SVG 20010904//EN"
 "http://www.w3.org/TR/2001/REC-SVG-20010904/DTD/svg10.dtd">
<svg version="1.0" xmlns="http://www.w3.org/2000/svg"
 width="1460.000000pt" height="1260.000000pt" viewBox="0 0 1460.000000 1260.000000"
 preserveAspectRatio="xMidYMid meet">

<g transform="translate(0.000000,1260.000000) scale(0.100000,-0.100000)"
fill="#000000" stroke="none">
<path d="M4359 12417 c-61 -32 -85 -78 -70 -133 29 -107 81 -135 320 -174 58
-9 152 -31 236 -55 28 -8 66 -17 85 -20 72 -13 294 -117 314 -147 15 -24 -28
-101 -73 -133 -38 -26 -88 -32 -120 -15 -10 5 -33 12 -52 15 -68 11 -129 27
-135 36 -3 5 -15 9 -27 9 -13 0 -55 16 -96 35 -44 21 -95 37 -129 41 -32 3
-70 10 -87 16 -63 20 -192 56 -250 68 -75 15 -127 30 -140 40 -15 11 -74 31
-135 45 -55 14 -137 39 -175 55 -37 16 -103 20 -318 21 -260 1 -278 -5 -351
-98 l-46 -58 0 -86 c0 -68 3 -89 18 -102 63 -60 130 -111 175 -133 29 -15 84
-47 122 -72 85 -55 203 -116 270 -139 27 -9 61 -25 75 -34 30 -19 85 -45 120
-55 14 -4 63 -25 110 -47 47 -22 121 -54 165 -72 187 -77 226 -99 334 -190 39
-33 105 -126 135 -190 43 -91 44 -94 50 -178 3 -43 10 -86 16 -97 5 -10 10
-74 10 -142 0 -139 -16 -198 -83 -300 -94 -145 -98 -191 -19 -246 158 -110
355 -219 467 -257 28 -10 100 -21 160 -25 61 -5 153 -16 205 -25 52 -10 145
-20 205 -24 105 -6 113 -9 190 -50 110 -61 102 -57 180 -80 39 -12 84 -25 100
-30 70 -21 144 -32 194 -29 48 3 56 6 72 33 20 33 27 175 9 175 -5 0 -10 5
-10 11 0 20 -73 74 -114 85 -14 3 -26 9 -26 13 0 15 67 70 93 76 15 4 30 11
33 16 9 15 30 10 55 -12 13 -12 48 -37 77 -56 54 -36 114 -100 142 -151 8 -15
24 -41 36 -57 11 -17 29 -55 40 -85 10 -30 22 -61 28 -68 5 -7 11 -84 13 -170
5 -177 13 -206 87 -289 64 -73 104 -93 186 -93 57 0 83 6 133 29 78 36 104 63
171 176 54 91 75 108 107 82 13 -10 14 -23 7 -77 -20 -145 -21 -280 -2 -339
27 -87 95 -198 171 -281 13 -14 23 -29 23 -33 0 -5 6 -14 13 -21 6 -7 23 -27
37 -45 14 -18 30 -38 35 -44 6 -7 17 -25 25 -40 23 -45 41 -50 189 -45 151 4
177 13 236 74 41 42 61 80 70 136 4 23 16 62 26 86 13 30 19 67 19 118 l0 75
78 78 c111 111 129 118 342 124 148 4 184 8 235 26 33 13 64 27 70 32 18 18
65 9 95 -18 23 -20 30 -35 30 -64 0 -44 -4 -47 -78 -64 -104 -24 -138 -34
-168 -50 -16 -8 -34 -15 -41 -15 -27 0 -110 -81 -145 -141 -36 -60 -38 -69
-38 -147 0 -61 5 -90 17 -110 29 -46 220 -236 255 -253 18 -9 80 -39 138 -67
103 -51 182 -72 280 -76 42 -2 83 9 138 36 21 11 92 99 92 114 0 18 109 104
139 110 66 13 213 -1 261 -26 118 -60 153 -90 220 -190 8 -12 27 -40 43 -61
15 -21 27 -43 27 -48 0 -5 5 -11 11 -13 6 -2 13 -33 16 -70 7 -80 -11 -145
-74 -268 -53 -105 -59 -137 -43 -208 22 -92 57 -142 214 -304 171 -176 228
-225 274 -234 18 -3 35 -10 38 -15 3 -5 75 -9 160 -9 135 0 160 3 194 20 21
11 43 26 47 34 4 8 41 49 82 90 l74 76 6 88 c6 81 -6 214 -20 237 -4 6 -10 26
-14 45 -4 19 -11 40 -15 45 -19 27 -31 113 -33 242 -1 79 -4 143 -7 143 -7 0
-43 -61 -51 -85 -9 -29 29 -288 56 -382 8 -28 15 -71 16 -95 0 -23 4 -52 8
-63 16 -41 -32 -174 -76 -214 -64 -56 -169 -101 -245 -104 -48 -1 -122 10
-147 23 -9 4 -33 16 -54 25 -39 17 -233 202 -303 290 -54 67 -100 138 -110
167 -10 33 -6 119 7 135 7 7 9 13 5 13 -4 0 2 12 11 27 32 48 39 86 41 208 1
110 -9 186 -30 210 -4 5 -8 17 -8 28 0 27 -49 94 -114 156 -52 49 -173 121
-203 121 -7 0 -13 5 -13 11 0 5 -4 8 -9 5 -5 -4 -20 -2 -34 3 -34 13 -196 21
-203 10 -3 -5 -16 -9 -30 -9 -32 0 -133 -51 -160 -81 -12 -13 -35 -49 -53 -80
-42 -77 -52 -83 -109 -75 -79 11 -86 13 -162 40 -232 84 -425 233 -447 345
-13 66 -2 145 26 179 12 15 24 34 27 44 3 9 17 19 30 22 14 4 23 10 20 15 -6
9 230 91 262 91 12 0 24 5 27 10 3 6 14 10 24 10 25 0 75 68 79 108 4 39 -37
107 -70 115 -30 8 -183 -10 -210 -24 -13 -7 -34 -14 -48 -16 -14 -1 -47 -7
-74 -12 -27 -5 -55 -7 -62 -4 -6 2 -15 0 -19 -6 -7 -12 -48 -15 -59 -4 -4 4
-19 9 -34 10 -15 1 -54 4 -87 6 -33 3 -64 3 -69 -1 -6 -3 -24 -7 -40 -8 -55
-4 -106 -33 -170 -98 -93 -93 -131 -187 -135 -341 -1 -33 -6 -64 -12 -69 -5
-6 -9 -17 -9 -25 -1 -43 -89 -106 -166 -120 -69 -13 -109 -9 -155 14 -36 18
-109 83 -109 97 0 4 -31 50 -70 102 -38 52 -70 99 -70 104 0 5 -8 20 -19 33
-25 33 -61 132 -64 177 -1 20 -5 40 -10 43 -8 6 -12 113 -4 126 3 5 8 31 12
59 3 27 10 51 15 52 6 2 10 15 10 28 0 13 4 24 10 24 5 0 7 7 4 15 -4 8 -2 15
4 15 5 0 12 8 15 18 21 64 149 196 239 245 53 29 144 91 151 104 5 7 12 11 17
8 5 -3 11 -1 14 4 6 10 -47 21 -79 17 -60 -8 -162 -42 -245 -82 -83 -40 -232
-179 -308 -287 -30 -43 -61 -81 -68 -84 -8 -3 -11 -9 -8 -14 6 -11 -32 -65
-74 -105 -37 -35 -96 -64 -129 -64 -104 0 -223 90 -223 169 0 10 -3 21 -7 25
-5 4 -13 49 -19 99 -13 104 -21 142 -34 168 -6 10 -10 29 -10 42 0 13 -16 59
-36 102 -29 64 -52 93 -126 166 -49 49 -94 89 -100 89 -5 0 -40 27 -79 60 -38
33 -77 61 -87 62 -28 2 -35 4 -77 23 -22 9 -66 18 -97 19 -44 1 -61 6 -72 21
-10 13 -15 15 -16 6 0 -9 -4 -10 -12 -4 -7 6 -42 11 -78 13 -81 4 -114 7 -165
15 -76 13 -160 12 -186 -1 -50 -25 -84 -109 -53 -134 8 -7 14 -9 14 -6 0 4 10
-2 22 -14 22 -20 32 -24 56 -21 6 1 12 -3 12 -9 0 -5 5 -10 12 -10 22 0 128
-34 128 -41 0 -4 23 -10 50 -14 28 -4 48 -11 45 -15 -3 -4 3 -6 13 -3 9 2 31
-3 47 -11 17 -9 40 -16 52 -16 12 0 24 -4 27 -9 3 -5 16 -9 28 -9 28 -1 45 -6
81 -21 16 -6 32 -9 37 -6 12 8 41 -6 34 -16 -3 -5 4 -9 15 -9 11 0 23 -5 26
-10 4 -6 10 -8 15 -5 22 13 10 -108 -13 -131 -22 -22 -122 -3 -227 44 -19 8
-44 17 -55 19 -11 2 -24 8 -29 13 -6 6 -18 10 -27 10 -9 0 -42 13 -72 29 -31
16 -58 27 -61 23 -3 -3 -6 1 -6 8 0 7 -3 10 -7 7 -3 -4 -16 -1 -28 7 -27 17
-103 26 -365 41 -70 4 -124 9 -225 21 -45 5 -115 24 -130 35 -5 3 -24 10 -42
13 -17 4 -37 14 -44 22 -6 8 -18 14 -25 14 -8 0 -37 11 -66 25 -28 14 -55 25
-60 25 -4 0 -18 9 -30 19 -13 10 -47 38 -77 62 -30 24 -63 56 -74 71 l-20 27
50 83 c45 73 87 180 82 204 -1 5 3 21 9 35 14 36 6 228 -13 277 -3 7 -8 48
-11 90 -12 154 -77 295 -177 388 -90 84 -131 111 -237 160 -52 25 -103 49
-112 54 -41 23 -55 30 -93 45 -22 9 -52 23 -66 31 -80 42 -122 61 -209 95 -30
11 -71 29 -90 39 -19 10 -75 38 -125 61 -105 50 -209 109 -213 121 -2 4 -8 8
-12 8 -21 0 -144 96 -171 133 -33 46 -40 117 -14 153 8 12 11 24 8 28 -4 4 3
9 15 13 12 3 22 9 22 14 0 4 16 16 35 25 29 14 54 16 138 11 99 -6 207 -24
407 -66 30 -7 64 -16 75 -21 11 -5 31 -10 45 -13 14 -2 61 -14 105 -27 102
-28 99 -27 170 -45 74 -18 119 -30 215 -56 41 -12 129 -34 195 -50 66 -16 127
-32 135 -36 8 -3 21 -5 28 -4 8 1 19 -3 27 -9 7 -6 17 -10 21 -9 14 4 128 -22
140 -32 22 -18 131 -21 171 -4 45 19 98 73 101 103 1 12 2 35 3 52 1 16 6 27
10 25 4 -3 2 13 -3 36 -14 54 -80 117 -130 123 -3 1 -10 4 -14 9 -4 4 -18 7
-31 7 -13 0 -21 4 -18 10 3 6 -1 7 -9 4 -9 -4 -18 0 -22 9 -3 9 -12 13 -19 11
-7 -3 -27 2 -44 10 -16 9 -42 16 -56 16 -14 0 -34 5 -45 10 -11 6 -29 15 -40
20 -11 6 -31 10 -44 10 -14 0 -28 5 -31 11 -4 6 -13 8 -21 5 -7 -3 -35 5 -61
16 -26 12 -54 21 -61 19 -8 -1 -20 3 -28 10 -8 6 -17 9 -21 6 -3 -3 -19 1 -35
9 -16 8 -38 12 -48 9 -14 -4 -20 -2 -20 9 0 10 -9 16 -25 16 -14 0 -28 7 -31
15 -4 8 -14 15 -24 15 -10 0 -20 10 -23 21 -7 26 19 70 37 63 7 -3 25 0 39 5
15 6 27 7 27 3 0 -4 39 -8 87 -10 48 -2 101 -5 118 -8 16 -3 77 -9 135 -13
155 -12 230 -22 230 -31 0 -12 50 -19 57 -7 3 5 10 3 15 -7 5 -9 18 -16 28
-16 10 0 22 -5 25 -10 4 -6 11 -8 16 -5 5 4 9 1 9 -4 0 -6 5 -11 11 -11 21 0
144 -95 209 -161 51 -52 75 -86 145 -207 35 -59 73 -120 84 -137 43 -62 71
-136 78 -208 4 -39 7 -79 5 -87 -9 -56 -9 -171 -1 -204 6 -22 12 -49 14 -60 5
-42 24 -72 73 -118 51 -47 92 -75 92 -62 0 3 7 1 16 -7 11 -9 50 -13 128 -13
90 -1 117 2 139 17 14 9 31 17 37 17 13 0 66 56 98 103 13 20 28 37 33 37 5 0
6 6 3 14 -3 7 1 20 8 27 7 8 15 23 17 34 1 11 21 50 42 87 22 38 54 96 72 131
17 34 36 67 42 73 5 6 17 22 25 34 8 12 23 32 32 44 9 13 25 42 34 66 19 47
71 110 92 110 7 0 10 5 7 10 -3 6 1 11 9 11 20 2 25 3 59 17 16 7 33 9 38 6 6
-3 15 -1 22 4 18 14 90 28 167 33 25 1 51 7 58 12 9 7 16 7 23 0 15 -15 -3
-46 -43 -74 -18 -13 -37 -29 -41 -36 -4 -7 -16 -13 -26 -13 -10 0 -31 -11 -47
-25 -16 -14 -35 -25 -41 -25 -7 0 -13 -4 -13 -9 0 -4 -17 -20 -37 -34 -55 -36
-112 -96 -128 -131 -7 -17 -27 -46 -44 -65 -17 -18 -31 -44 -31 -57 0 -12 -12
-36 -26 -53 -14 -17 -23 -34 -20 -39 3 -5 -3 -24 -13 -43 -38 -70 -51 -272
-21 -324 9 -17 20 -46 23 -65 9 -43 46 -120 58 -120 5 0 9 -7 9 -15 0 -8 5
-15 10 -15 6 0 10 -9 10 -20 0 -11 8 -28 18 -38 9 -10 26 -36 37 -57 11 -21
34 -54 52 -74 17 -20 30 -39 27 -42 -2 -4 3 -12 11 -19 8 -7 15 -16 15 -21 0
-18 72 -108 113 -141 73 -60 104 -72 188 -73 60 0 87 5 127 24 29 14 50 26 48
29 -3 2 7 14 22 27 51 42 70 94 70 186 0 85 -11 126 -61 229 -20 40 -22 60
-21 186 1 263 41 345 137 288 15 -9 19 -28 23 -115 2 -57 6 -145 8 -195 5 -92
22 -174 38 -174 4 0 8 -9 8 -20 0 -11 5 -20 10 -20 6 0 10 -9 10 -19 0 -12 9
-22 23 -26 12 -4 32 -16 44 -27 12 -12 29 -18 37 -15 9 4 16 2 16 -3 0 -13 77
-13 85 0 4 6 10 8 15 5 18 -11 79 32 106 75 15 25 27 48 26 53 -1 4 3 7 9 7 5
0 8 4 4 9 -3 5 0 13 5 16 6 4 15 18 20 31 5 13 15 24 22 24 7 0 24 16 37 35
13 19 29 35 35 35 7 0 22 12 35 26 12 14 38 32 57 40 19 8 34 21 34 29 0 8 8
15 17 15 9 0 26 9 37 19 12 11 37 24 56 29 19 6 64 22 100 35 93 36 155 43
175 23 9 -9 20 -14 25 -11 4 3 7 -6 6 -19 0 -13 -4 -22 -7 -20 -3 2 -11 -8
-18 -22 -8 -18 -16 -24 -30 -19 -13 4 -30 -4 -52 -25 -19 -16 -39 -30 -45 -30
-17 0 -183 -87 -221 -116 -18 -14 -33 -31 -33 -39 0 -8 -11 -21 -23 -30 -40
-26 -67 -207 -44 -295 5 -19 8 -45 8 -57 0 -13 4 -23 9 -23 6 0 10 -9 10 -20
0 -11 5 -20 11 -20 5 0 8 -4 4 -10 -9 -15 137 -169 162 -170 6 0 13 -3 15 -7
9 -21 171 -115 228 -133 25 -8 47 -17 50 -20 16 -19 204 -74 290 -85 14 -2 50
-7 80 -11 135 -17 163 -6 186 73 9 32 25 67 35 79 11 11 19 25 19 31 0 17 117
9 175 -11 28 -10 75 -27 105 -38 30 -11 64 -24 75 -31 11 -6 38 -20 60 -31 80
-42 142 -92 250 -201 106 -107 128 -141 139 -210 7 -43 -12 -145 -33 -173 -11
-16 -18 -32 -14 -36 3 -3 1 -6 -5 -6 -16 0 -32 -66 -32 -137 0 -59 30 -151 53
-161 4 -2 7 -8 7 -14 0 -11 55 -68 65 -68 4 0 27 -17 51 -39 38 -34 245 -146
283 -153 8 -2 22 -9 30 -16 9 -7 19 -12 24 -12 4 1 29 -10 55 -23 106 -54 316
-149 337 -151 21 -3 125 -59 125 -67 0 -5 9 -9 20 -9 31 0 109 -52 175 -117
13 -12 26 -19 29 -16 3 4 6 1 6 -6 0 -12 120 -166 145 -186 6 -6 15 -19 19
-31 3 -11 26 -42 51 -67 24 -26 52 -58 61 -72 9 -14 23 -25 30 -25 8 0 14 -8
14 -19 0 -10 6 -24 14 -30 8 -6 19 -25 26 -41 7 -17 19 -30 26 -30 8 0 14 -7
14 -15 0 -8 9 -19 20 -25 11 -6 18 -15 15 -20 -3 -4 1 -15 9 -23 8 -8 12 -18
8 -22 -4 -3 1 -13 12 -20 10 -8 15 -18 11 -24 -3 -6 -1 -11 5 -11 7 0 10 -6 7
-12 -2 -7 -1 -20 4 -29 18 -35 23 -115 21 -324 -1 -137 -7 -238 -14 -269 -12
-43 -17 -49 -52 -61 -33 -12 -44 -12 -66 0 -47 24 -50 35 -55 199 -2 87 -9
174 -14 194 -6 20 -12 53 -15 72 -2 19 -7 46 -10 60 -3 14 -8 42 -11 63 -3 21
-12 45 -20 53 -8 9 -15 20 -15 25 0 17 -52 79 -60 74 -5 -3 -12 0 -15 6 -4 5
-13 8 -21 5 -8 -3 -14 -1 -14 4 0 4 -16 6 -36 4 -20 -2 -41 0 -48 5 -16 12
-52 -4 -58 -26 -4 -16 -1 -18 24 -15 15 2 31 8 34 13 3 5 21 9 40 9 27 0 45
-9 77 -39 l42 -40 4 -93 c2 -51 6 -95 10 -98 5 -3 16 -65 26 -137 17 -127 17
-165 -1 -316 -6 -51 -4 -60 15 -81 29 -31 131 -60 179 -51 23 4 54 22 82 47
l45 40 0 372 c0 395 1 383 -47 451 -5 5 -56 77 -114 160 -59 82 -119 161 -133
175 -33 34 -64 73 -101 129 -43 66 -173 194 -248 244 -82 55 -200 117 -267
142 -27 10 -143 62 -256 117 -114 54 -213 98 -220 98 -26 0 -184 82 -229 118
-25 20 -64 56 -87 81 l-43 46 0 82 c0 80 1 84 57 190 45 86 57 117 57 155 0
44 -30 128 -46 128 -5 0 -8 6 -8 13 0 19 -287 301 -340 335 -43 26 -124 64
-200 92 -19 7 -45 22 -58 34 -41 36 -155 57 -204 37 -13 -6 -39 -12 -59 -16
-46 -7 -105 -57 -112 -94 -3 -16 -17 -42 -31 -57 -22 -27 -30 -29 -108 -32
-73 -3 -94 0 -173 28 -49 18 -111 38 -137 45 -25 7 -91 34 -145 61 -86 42
-110 60 -199 148 -129 130 -137 146 -132 289 3 105 5 115 33 157 28 41 93 83
170 111 34 11 229 109 245 122 67 53 88 134 49 188 -32 45 -69 59 -152 59 -75
0 -98 -7 -282 -82 -78 -32 -111 -58 -265 -210 -151 -148 -182 -182 -193 -211
-3 -9 -11 -17 -17 -17 -5 0 -10 -7 -10 -15 0 -18 -40 -29 -70 -20 -29 9 -86
68 -105 108 -11 25 -15 86 -17 274 -3 241 -3 241 -27 262 -33 29 -162 30 -204
3 -82 -55 -87 -76 -87 -367 l0 -242 60 -61 c55 -57 60 -66 60 -106 0 -25 -4
-48 -10 -51 -5 -3 -10 -15 -10 -25 0 -10 -26 -46 -57 -79 -50 -51 -65 -60
-104 -66 -35 -5 -57 -2 -85 11 -45 20 -232 204 -254 249 -8 17 -30 55 -49 85
-20 30 -40 64 -46 75 -6 11 -23 42 -38 68 -15 26 -27 56 -27 67 0 10 -5 22
-10 25 -6 4 -10 12 -9 18 1 7 0 19 -4 27 -28 75 -25 310 4 310 5 0 6 6 3 14
-3 8 -1 17 5 21 6 3 11 16 11 29 0 38 46 119 100 176 28 29 60 66 71 82 20 28
61 58 208 153 123 80 128 85 171 176 11 21 -5 46 -40 64 -41 21 -224 20 -293
-1 -29 -9 -61 -20 -72 -24 -11 -5 -38 -14 -60 -20 -48 -14 -114 -44 -135 -62
-28 -23 -100 -132 -125 -187 -9 -19 -34 -64 -57 -100 -23 -36 -79 -140 -125
-231 -85 -168 -103 -192 -197 -257 -30 -22 -53 -28 -105 -31 -65 -4 -67 -3
-117 40 -103 87 -102 83 -106 333 l-4 220 -53 100 c-30 55 -86 150 -126 210
-39 61 -81 126 -93 145 -64 105 -268 245 -422 289 -41 12 -102 31 -135 41 -54
18 -88 20 -331 20 -264 0 -272 -1 -315 -23z"/>
<path d="M8744 11516 c-41 -18 -44 -25 -28 -61 14 -34 66 -62 169 -90 93 -26
194 -56 258 -76 31 -11 63 -19 70 -19 12 0 552 -173 592 -190 11 -5 81 -29
155 -53 124 -41 163 -57 320 -130 30 -14 105 -47 165 -72 61 -26 156 -69 212
-96 55 -27 107 -49 115 -49 8 0 70 -32 139 -71 136 -78 204 -136 282 -245 128
-175 186 -246 287 -350 59 -61 111 -121 114 -132 4 -12 34 -65 66 -118 37 -61
62 -113 66 -141 3 -24 10 -46 15 -49 5 -3 9 -129 9 -280 0 -305 4 -333 66
-429 17 -27 34 -64 38 -80 4 -17 22 -57 41 -88 19 -32 35 -60 35 -63 0 -9 84
-179 105 -214 12 -19 36 -71 54 -115 18 -44 44 -100 56 -125 55 -106 93 -189
100 -218 3 -18 17 -53 31 -79 13 -27 24 -54 24 -61 0 -7 4 -20 9 -30 21 -42
39 -111 60 -232 16 -93 70 -150 159 -165 42 -7 45 -5 82 35 34 36 43 41 67 36
15 -4 37 -18 49 -31 l22 -24 -20 -83 c-11 -46 -35 -133 -55 -195 -20 -64 -32
-121 -28 -132 4 -13 24 -26 57 -37 44 -14 61 -15 112 -6 34 7 78 14 99 18 20
3 39 10 42 14 3 5 25 18 49 29 45 22 129 99 186 171 38 48 87 81 162 110 111
42 127 27 128 -118 0 -57 5 -112 10 -123 13 -23 58 -25 150 -3 36 8 90 18 120
23 138 22 226 60 330 144 111 89 130 107 130 121 0 6 10 23 23 36 64 72 127
305 99 364 -6 11 -13 49 -15 82 -4 55 -12 72 -62 148 -32 48 -80 107 -107 131
-75 67 -228 165 -258 165 -6 0 -30 8 -53 19 -23 10 -85 35 -137 55 -188 73
-205 80 -215 88 -5 4 -16 8 -24 8 -21 0 -158 66 -216 105 -27 18 -64 48 -82
67 -35 36 -93 143 -93 170 0 9 -4 20 -10 23 -5 3 -10 35 -10 70 0 35 5 67 10
70 6 3 10 48 10 98 0 53 6 111 14 137 39 121 43 197 16 315 -20 91 -29 149
-29 207 -1 31 -5 59 -10 62 -4 3 -11 19 -14 36 -4 16 -16 49 -27 72 -11 23
-23 66 -27 96 -3 29 -10 55 -14 58 -5 3 -9 20 -9 37 0 69 -31 176 -81 277 -28
58 -59 121 -68 140 -9 19 -18 37 -21 40 -11 11 -54 96 -194 380 -52 104 -100
192 -135 245 -30 46 -67 56 -107 30 -59 -39 -53 -133 19 -285 39 -82 63 -140
77 -185 7 -22 22 -53 34 -70 23 -31 63 -111 91 -180 9 -22 32 -71 52 -110 57
-113 62 -136 82 -374 5 -62 14 -118 20 -124 6 -6 11 -43 11 -82 0 -42 5 -76
12 -83 18 -18 25 -267 8 -287 -21 -25 -56 -18 -82 18 -27 36 -58 125 -58 166
0 15 -4 31 -8 37 -5 5 -17 41 -27 79 -10 39 -21 75 -25 80 -4 6 -10 33 -13 60
-3 28 -18 75 -34 105 -40 79 -159 208 -238 258 -126 79 -183 119 -220 152 -84
76 -278 213 -375 264 -76 40 -388 247 -485 321 -141 108 -241 167 -312 184
-21 5 -76 21 -123 35 -47 14 -121 33 -165 42 -44 9 -111 23 -150 31 -137 29
-221 44 -293 53 -82 10 -208 36 -267 55 -22 8 -62 17 -90 20 -27 4 -74 13
-103 21 -54 15 -99 25 -212 49 -36 8 -108 23 -160 35 -52 12 -121 26 -153 31
-32 5 -66 13 -76 18 -9 5 -89 12 -177 16 -127 4 -165 3 -190 -9z m837 -237
c10 -7 8 -8 -8 -6 -28 4 -37 12 -28 27 6 9 9 9 15 0 4 -7 14 -16 21 -21z m79
-1 c0 -10 2 -10 8 -1 8 12 63 3 182 -28 19 -5 55 -11 80 -14 70 -9 103 -13
135 -20 17 -4 47 -9 68 -12 20 -3 37 -8 37 -12 0 -3 15 -6 33 -7 17 0 124 -20
235 -42 112 -23 208 -39 214 -36 6 4 13 3 17 -2 3 -5 40 -17 81 -27 90 -22
119 -32 186 -63 28 -13 56 -24 62 -24 7 0 12 -4 12 -8 0 -8 213 -152 225 -152
4 0 13 -7 19 -14 6 -8 18 -16 26 -18 8 -2 20 -7 26 -13 43 -38 65 -55 70 -55
3 0 21 -12 40 -26 19 -15 34 -23 34 -19 0 5 8 -1 18 -11 9 -10 34 -28 55 -38
20 -11 37 -23 37 -28 0 -4 6 -8 13 -8 6 0 35 -17 62 -38 28 -20 61 -43 75 -50
42 -21 69 -38 87 -53 10 -8 31 -21 47 -29 16 -8 42 -27 59 -42 16 -16 32 -28
36 -28 3 -1 21 -14 40 -30 19 -16 38 -27 43 -24 5 3 7 1 6 -4 -3 -9 74 -72 87
-72 3 0 14 -8 25 -17 11 -10 29 -26 40 -35 11 -10 23 -18 27 -18 8 0 107 -82
111 -92 2 -5 10 -8 18 -8 9 0 12 -4 9 -10 -3 -5 -2 -10 3 -10 12 0 102 -90
102 -102 0 -5 5 -6 10 -3 10 6 14 -7 11 -34 -2 -8 2 -10 10 -5 7 4 10 3 6 -3
-8 -13 13 -93 25 -93 6 0 8 -6 5 -14 -3 -7 -1 -18 4 -23 5 -5 11 -28 14 -53 3
-24 10 -49 14 -54 5 -6 12 -27 16 -46 4 -19 10 -39 13 -45 4 -5 7 -14 7 -20 1
-22 29 -101 41 -115 6 -8 15 -25 18 -37 4 -14 19 -26 34 -30 15 -3 36 -12 47
-18 17 -11 25 -10 50 6 17 11 37 22 47 25 21 8 44 107 40 179 -4 81 -13 166
-26 265 -9 63 -18 144 -21 180 -17 214 -19 234 -25 240 -3 3 -14 24 -24 47
-19 42 -16 63 10 63 12 0 12 -4 2 -20 -7 -10 -8 -23 -4 -27 5 -4 11 -2 13 5 7
19 23 14 23 -7 0 -11 5 -23 10 -26 8 -5 7 -11 -1 -21 -9 -11 -8 -14 3 -14 11
0 17 -15 22 -50 4 -27 12 -50 17 -50 6 0 8 -7 5 -16 -3 -9 -3 -21 1 -27 4 -7
9 -21 10 -31 2 -11 8 -25 13 -32 6 -6 13 -36 16 -65 3 -30 9 -58 12 -64 11
-17 44 -139 46 -167 0 -16 7 -28 14 -28 7 0 11 -4 8 -8 -3 -5 6 -55 20 -113
13 -57 27 -124 31 -149 10 -75 7 -191 -6 -215 -3 -5 -6 -14 -7 -20 -2 -5 -11
-42 -22 -82 -11 -39 -19 -95 -18 -123 1 -28 -1 -53 -5 -55 -13 -9 16 -225 30
-225 4 0 14 -18 21 -40 7 -22 19 -40 27 -40 7 0 13 -9 13 -20 0 -20 116 -140
136 -140 6 0 19 -9 29 -20 10 -11 24 -20 32 -20 8 0 31 -9 51 -20 20 -10 64
-29 97 -41 60 -22 93 -36 197 -83 31 -14 60 -26 63 -26 4 0 21 -6 38 -14 18
-7 61 -26 97 -41 95 -40 174 -77 180 -84 3 -4 19 -15 35 -26 45 -28 135 -116
135 -131 0 -8 5 -14 10 -14 6 0 10 -6 10 -14 0 -7 7 -19 15 -26 8 -7 15 -18
15 -26 0 -7 5 -25 12 -41 6 -15 10 -35 9 -45 -1 -9 3 -19 9 -23 24 -15 1 -230
-31 -285 -5 -8 -20 -39 -34 -67 -13 -29 -29 -53 -33 -53 -5 0 -15 -12 -22 -26
-26 -47 -156 -120 -275 -153 -69 -19 -230 -51 -258 -51 -14 0 -32 51 -28 79 3
16 -29 91 -38 92 -3 0 -17 3 -31 7 -14 3 -59 6 -100 6 -68 1 -82 -3 -154 -39
-85 -43 -149 -96 -160 -133 -4 -12 -11 -20 -15 -18 -4 3 -25 -13 -46 -34 -23
-23 -49 -40 -61 -40 -13 0 -26 -5 -29 -10 -8 -13 -195 -11 -195 2 0 5 7 25 15
44 8 19 14 38 13 42 -1 4 4 21 11 37 30 70 34 81 37 110 11 78 13 90 14 90 3
0 9 62 10 106 2 73 -37 250 -124 569 -8 30 -25 93 -37 140 -24 97 -51 155 -74
164 -32 12 -78 6 -116 -16 -33 -18 -39 -27 -45 -66 -4 -29 -1 -69 11 -116 9
-39 20 -87 22 -106 3 -19 9 -39 13 -45 5 -5 15 -44 24 -86 9 -42 18 -83 20
-90 3 -8 7 -27 9 -44 3 -16 14 -66 25 -110 35 -139 37 -161 12 -187 -19 -21
-23 -22 -48 -8 -33 19 -72 93 -91 175 -21 87 -33 131 -41 150 -5 11 -16 43
-25 70 -9 28 -25 69 -35 92 -11 24 -20 46 -20 51 0 4 -13 32 -29 63 -94 181
-131 258 -131 272 0 8 -9 22 -20 32 -11 10 -20 23 -20 28 0 5 -17 46 -39 91
-21 44 -50 106 -64 136 -14 30 -48 102 -75 160 -112 234 -105 202 -109 490 -2
140 -6 266 -10 280 -3 14 -6 28 -5 32 4 19 -42 145 -57 159 -10 8 -22 26 -26
40 -4 13 -10 26 -14 29 -10 9 -51 69 -51 76 0 4 -6 12 -13 18 -8 6 -50 58 -95
116 -45 58 -117 150 -162 205 -44 55 -97 122 -118 149 -44 58 -206 228 -231
241 -17 10 -106 53 -216 105 -170 80 -245 114 -295 132 -30 12 -57 24 -60 27
-3 4 -25 13 -50 21 -25 7 -52 20 -61 27 -8 7 -21 13 -27 13 -6 0 -27 9 -45 19
-19 11 -43 24 -53 29 -16 9 -93 40 -179 72 -11 4 -46 17 -77 30 -32 12 -63 23
-70 24 -7 1 -20 6 -28 11 -17 11 -45 22 -155 59 -44 15 -90 33 -103 39 -22 10
-22 12 -6 24 23 16 44 17 44 1z m3033 -788 c-3 -12 -8 -19 -11 -16 -5 6 5 36
12 36 2 0 2 -9 -1 -20z m27 -46 c0 -14 -3 -14 -15 -4 -8 7 -15 14 -15 16 0 2
7 4 15 4 8 0 15 -7 15 -16z m13 -44 c3 -11 13 -20 22 -20 17 0 16 -21 -1 -27
-9 -3 -44 46 -44 61 0 15 18 4 23 -14z"/>
<path d="M12795 10270 c3 -5 8 -10 11 -10 2 0 4 5 4 10 0 6 -5 10 -11 10 -5 0
-7 -4 -4 -10z"/>
<path d="M2049 10871 c-27 -9 -192 -114 -220 -141 -9 -8 -25 -29 -35 -45 -11
-17 -39 -57 -63 -88 -28 -37 -47 -74 -52 -100 -16 -96 -30 -152 -39 -161 -6
-6 -10 -24 -10 -41 0 -17 -6 -37 -12 -43 -10 -10 -14 -79 -16 -257 l-4 -245
94 0 c69 0 109 5 153 21 90 31 462 218 515 258 59 45 141 113 151 126 5 6 21
26 38 45 l29 35 90 0 c81 -1 94 -4 132 -29 24 -16 67 -53 96 -83 64 -67 65
-68 60 -364 l-4 -227 -34 -53 c-19 -30 -59 -77 -89 -105 -103 -96 -174 -160
-224 -199 -81 -63 -269 -257 -290 -300 -11 -22 -23 -41 -27 -43 -5 -2 -8 -11
-8 -19 0 -14 -42 -72 -83 -115 -29 -31 -208 -309 -240 -373 -20 -38 -39 -92
-43 -120 -6 -45 -17 -76 -59 -170 -7 -16 -21 -57 -31 -90 -9 -33 -21 -64 -26
-69 -4 -6 -8 -26 -8 -45 0 -20 -7 -49 -15 -65 -8 -15 -15 -47 -15 -70 0 -59
-28 -210 -40 -214 -5 -2 -10 -10 -10 -17 0 -39 -155 -87 -175 -55 -9 15 -8
408 1 448 3 15 21 59 39 97 18 39 36 87 40 108 4 20 11 40 16 43 15 9 10 175
-6 221 -19 54 -47 86 -110 125 -45 28 -59 32 -130 32 -75 1 -85 -1 -139 -34
-93 -57 -144 -124 -175 -230 -7 -25 -17 -54 -22 -65 -4 -11 -11 -69 -15 -130
-4 -72 -12 -124 -24 -150 -14 -31 -19 -73 -22 -184 -3 -99 -8 -146 -16 -149
-7 -2 -12 -13 -12 -24 0 -36 -71 -155 -133 -223 -41 -44 -47 -81 -43 -229 6
-175 16 -308 26 -321 4 -5 11 -25 15 -44 6 -28 29 -82 66 -153 5 -10 11 -43
14 -75 6 -57 19 -118 35 -158 5 -11 15 -44 24 -72 24 -76 120 -257 171 -322
58 -73 132 -173 171 -230 46 -68 141 -161 164 -161 17 0 11 -26 -10 -45 -14
-12 -27 -15 -47 -11 -42 10 -304 117 -338 138 -16 10 -37 21 -45 24 -8 4 -22
13 -30 20 -8 6 -53 32 -100 56 -106 56 -160 89 -184 117 -11 11 -25 21 -33 21
-7 0 -17 8 -20 18 -4 9 -28 41 -55 70 l-48 54 0 107 c0 59 4 111 8 116 12 14
30 81 37 138 4 26 9 47 13 47 16 0 32 137 32 268 0 173 -5 182 -91 182 -94 0
-143 -38 -196 -150 -19 -41 -43 -93 -54 -115 -10 -22 -28 -64 -39 -94 -12 -30
-59 -131 -105 -225 -45 -94 -91 -198 -101 -231 -9 -33 -22 -66 -27 -73 -13
-17 -10 -293 3 -306 6 -6 10 -21 10 -33 0 -30 20 -69 82 -159 26 -39 48 -76
48 -81 0 -5 17 -34 38 -64 20 -30 44 -67 52 -83 8 -16 49 -63 90 -105 57 -58
89 -82 135 -100 33 -13 71 -32 85 -42 14 -9 53 -26 85 -38 33 -11 74 -27 91
-35 17 -9 62 -23 100 -31 94 -21 136 -32 224 -56 41 -12 100 -25 130 -30 117
-19 241 -62 268 -94 36 -41 42 -62 42 -141 0 -66 -4 -84 -27 -123 -14 -25 -29
-48 -33 -51 -7 -6 -112 -174 -129 -207 -6 -12 -11 -33 -11 -47 0 -14 -4 -27
-9 -30 -15 -10 5 -248 24 -291 22 -47 188 -213 269 -269 162 -112 183 -133
236 -241 97 -194 184 -275 295 -275 166 0 210 162 83 302 -36 40 -81 97 -86
107 -1 4 -64 70 -140 147 -156 159 -192 214 -192 298 0 50 13 90 46 146 9 14
21 37 27 53 6 15 15 27 19 27 4 0 8 4 8 8 0 5 29 39 65 76 36 37 65 73 65 81
0 13 36 45 52 45 4 0 17 -19 28 -42 11 -24 26 -52 33 -63 133 -217 217 -305
352 -369 134 -64 318 -117 413 -118 143 -1 268 74 308 185 3 9 10 17 13 17 15
0 50 87 62 153 10 52 10 81 1 131 -7 35 -12 74 -12 86 0 46 -96 214 -159 279
-9 9 -25 30 -36 45 -11 16 -40 51 -65 79 -25 27 -60 73 -79 101 -19 28 -37 53
-41 56 -3 3 -17 23 -30 45 -13 22 -27 42 -30 45 -12 9 -18 37 -12 46 9 12 68
40 104 49 39 10 61 -1 76 -35 8 -17 19 -36 25 -43 7 -7 29 -38 50 -69 21 -31
47 -67 58 -79 10 -12 19 -25 19 -29 0 -3 38 -46 85 -96 47 -49 115 -122 153
-162 106 -115 133 -142 227 -227 164 -149 205 -171 545 -293 l125 -45 247 -4
c188 -4 250 -8 258 -18 18 -21 31 -112 37 -245 3 -69 9 -129 14 -134 5 -6 9
-19 9 -30 1 -12 11 -50 24 -86 13 -36 34 -94 46 -130 24 -70 37 -105 51 -132
5 -9 11 -36 15 -60 3 -24 9 -52 14 -63 35 -87 51 -129 69 -185 12 -36 26 -74
31 -85 5 -11 12 -31 16 -45 15 -57 115 -243 189 -353 44 -65 85 -126 90 -135
6 -10 12 -19 15 -22 3 -3 23 -32 45 -65 22 -33 64 -88 95 -121 30 -34 75 -89
100 -124 93 -128 148 -202 168 -225 12 -14 34 -44 48 -67 15 -24 47 -63 70
-88 24 -25 58 -66 76 -90 55 -78 179 -230 186 -230 4 0 49 -41 101 -91 52 -50
118 -109 145 -130 28 -22 78 -62 111 -90 33 -28 84 -66 113 -85 30 -19 75 -54
100 -78 74 -67 162 -130 243 -172 40 -21 99 -55 129 -75 30 -20 77 -49 104
-63 27 -15 63 -38 81 -52 18 -13 35 -24 39 -24 3 0 37 -22 74 -48 37 -27 90
-59 117 -72 28 -13 69 -38 92 -55 29 -22 59 -35 94 -39 29 -4 61 -11 71 -17
33 -18 219 -29 320 -20 183 18 275 46 478 147 102 50 208 107 235 126 28 19
79 51 115 70 96 52 196 123 368 258 31 25 84 65 116 89 32 24 221 207 420 406
291 291 378 385 451 484 50 68 113 153 140 190 51 67 61 83 96 150 10 20 35
52 54 71 19 19 35 40 35 47 0 7 4 13 9 13 8 0 76 111 139 230 19 35 49 88 67
116 19 29 31 55 28 58 -4 3 -2 6 4 6 6 0 18 25 28 55 9 30 20 55 24 55 10 0
71 106 71 124 0 9 5 16 10 16 6 0 10 17 10 38 0 44 18 95 63 182 18 36 41 99
51 139 10 41 22 82 26 90 8 15 27 101 37 166 2 17 8 39 13 50 5 11 11 51 14
89 3 38 10 72 15 76 6 3 11 32 13 64 4 77 17 85 86 55 l52 -23 0 -83 c0 -65
-4 -89 -20 -115 -21 -35 -26 -98 -10 -128 17 -32 61 -40 132 -24 194 45 256
69 310 118 38 33 78 99 78 128 0 9 4 19 9 22 5 3 11 23 14 43 11 78 29 133 49
148 17 11 49 13 167 8 138 -5 148 -4 183 16 37 22 68 72 68 110 0 12 4 29 9
39 5 9 17 37 26 62 25 65 41 94 61 105 32 18 58 40 94 76 19 19 60 52 92 73
70 46 178 156 178 182 0 6 43 55 96 110 53 54 116 129 140 166 25 37 49 70 54
73 6 3 28 33 50 65 22 33 59 79 83 103 44 45 89 102 96 121 2 6 23 31 46 56
60 64 96 107 142 170 44 61 57 74 219 231 60 58 132 120 159 139 28 18 77 59
110 90 33 31 96 83 140 117 86 65 148 130 179 184 10 19 33 52 51 74 17 22 40
54 49 71 18 30 18 31 -15 95 -45 86 -109 148 -194 188 -92 44 -98 46 -182 70
-66 20 -96 21 -431 21 -211 0 -371 -4 -386 -10 -15 -5 -68 -15 -119 -21 -50
-6 -97 -15 -102 -20 -6 -4 -35 -11 -65 -14 -64 -8 -216 -42 -245 -55 -11 -5
-51 -20 -90 -34 -96 -33 -458 -192 -499 -219 -89 -57 -122 -77 -128 -77 -5 0
-30 -15 -56 -33 -26 -18 -54 -36 -62 -40 -71 -33 -143 -85 -242 -175 -54 -50
-128 -187 -128 -238 0 -72 112 -98 227 -54 55 21 88 17 119 -14 8 -8 26 -24
41 -36 l28 -22 -35 -26 c-98 -74 -189 -183 -216 -260 -17 -48 -17 -55 -4 -80
19 -34 73 -61 123 -62 68 0 58 -22 -61 -141 -132 -131 -272 -332 -272 -389 0
-19 28 -92 39 -100 3 -3 12 -16 19 -30 7 -14 37 -45 67 -70 l54 -45 0 -62 c1
-55 -2 -64 -25 -82 -23 -18 -41 -21 -137 -21 l-110 0 -106 103 c-138 133 -139
134 -202 157 -42 16 -80 20 -174 20 -67 0 -146 6 -179 14 -33 8 -120 15 -198
15 -181 2 -211 9 -343 74 -132 66 -173 100 -266 220 -167 219 -207 267 -293
356 -50 51 -129 123 -176 159 -47 36 -130 109 -185 162 -95 91 -165 143 -282
207 -178 98 -212 126 -285 233 l-37 55 -5 160 c-5 158 -12 220 -26 240 -4 6
-10 49 -13 97 -6 86 -6 87 -67 177 -55 83 -66 93 -124 121 -56 26 -75 30 -149
30 -123 0 -185 -27 -288 -126 -45 -42 -79 -112 -79 -162 0 -19 -27 -110 -48
-162 -5 -14 -15 -45 -22 -70 -19 -69 -43 -144 -51 -155 -4 -5 -10 -25 -14 -44
-8 -37 -43 -107 -79 -156 -12 -16 -30 -48 -41 -70 -21 -47 -67 -118 -77 -123
-5 -2 -8 -9 -8 -15 0 -31 -275 -308 -358 -361 -92 -59 -196 -100 -295 -116
-29 -5 -83 -16 -122 -25 -38 -9 -133 -20 -210 -24 -124 -7 -153 -13 -250 -46
-101 -34 -142 -50 -232 -91 -17 -8 -36 -14 -43 -14 -10 0 -45 -14 -137 -56
-17 -8 -35 -14 -40 -14 -4 0 -64 -23 -132 -50 -68 -28 -128 -50 -133 -50 -6 0
-24 -6 -41 -14 -18 -7 -59 -23 -92 -36 -33 -12 -92 -37 -131 -55 -39 -18 -81
-36 -95 -40 -13 -4 -28 -11 -34 -15 -5 -4 -26 -11 -45 -15 -36 -8 -262 -122
-315 -159 -42 -30 -59 -53 -81 -108 -10 -26 -21 -48 -25 -48 -4 0 -9 -10 -12
-21 -5 -19 -11 -21 -44 -17 -22 3 -59 15 -83 26 l-44 20 -49 -40 c-57 -48 -90
-52 -182 -19 -32 11 -69 21 -81 21 -68 0 -356 147 -405 206 -8 10 -31 29 -51
44 l-37 27 34 33 c31 30 36 32 66 21 17 -6 61 -11 96 -11 81 0 182 -28 286
-80 l81 -40 121 0 c132 1 157 8 181 55 19 38 21 133 3 165 -17 31 -91 124
-101 128 -5 2 -8 9 -8 15 0 7 -17 30 -38 52 -96 100 -114 170 -67 267 29 60
33 134 9 179 -16 32 -68 82 -143 139 -74 56 -141 114 -141 121 0 15 90 81 102
75 7 -3 36 -19 63 -35 78 -44 142 -57 216 -43 35 6 66 17 71 24 5 7 7 49 5 93
-3 65 -8 87 -29 120 -45 70 -130 150 -193 181 -33 16 -92 51 -132 77 -40 26
-74 47 -77 47 -2 0 -55 31 -118 69 -62 37 -125 71 -139 74 -15 4 -71 28 -125
53 -109 51 -266 105 -359 124 -33 6 -73 16 -90 21 -98 29 -175 53 -210 65 -25
8 -108 14 -220 17 -129 3 -187 8 -205 17 -33 19 -267 20 -330 2 -25 -7 -83
-17 -130 -23 -47 -5 -103 -12 -125 -15 -34 -5 -44 -2 -63 19 -18 20 -23 34
-20 68 l3 44 82 7 c46 4 88 10 95 15 7 4 42 15 78 25 36 9 85 22 110 28 25 6
54 16 65 20 11 5 45 14 75 21 30 6 60 15 66 20 6 5 36 11 67 15 32 4 60 11 63
15 9 14 122 10 178 -6 52 -15 80 -29 246 -117 184 -99 203 -108 221 -108 10 0
21 -4 24 -10 8 -12 232 -13 239 -1 3 5 17 12 30 15 49 12 172 92 238 155 38
35 93 99 123 141 40 57 72 89 123 124 84 57 282 255 282 283 0 5 15 27 33 49
32 37 47 62 78 128 19 40 20 409 2 428 -7 6 -13 19 -13 28 -1 34 -90 110 -203
170 -66 36 -83 41 -114 35 -67 -12 -141 -53 -202 -110 -33 -32 -71 -63 -83
-70 -76 -41 -327 -164 -348 -170 -14 -4 -30 -11 -36 -16 -6 -5 -38 -12 -71
-15 -49 -5 -61 -4 -66 9 -3 9 -2 19 3 22 6 4 10 32 10 63 0 31 7 113 14 182
12 97 21 137 42 180 16 30 33 60 39 66 5 6 29 34 53 62 24 29 55 58 70 66 130
69 248 101 341 92 36 -4 73 -14 82 -22 11 -10 41 -14 107 -14 56 0 106 -6 129
-14 21 -8 65 -20 98 -26 79 -15 194 -70 245 -117 23 -20 69 -75 102 -123 33
-47 91 -116 128 -155 88 -90 111 -133 118 -215 4 -53 12 -76 44 -126 50 -81
116 -141 163 -150 53 -10 171 0 235 20 66 21 109 40 175 82 28 17 76 46 107
65 121 72 231 201 278 326 14 38 8 267 -9 333 -7 25 -18 80 -25 122 -9 59 -21
89 -44 122 -18 24 -32 50 -32 57 0 7 -42 54 -93 103 -82 80 -108 98 -211 150
-66 32 -148 64 -183 72 -35 7 -76 21 -91 31 -31 22 -54 33 -137 67 -119 49
-315 155 -374 203 -33 26 -86 61 -118 77 -78 40 -186 115 -253 177 -30 28 -79
66 -107 86 -52 35 -54 35 -132 31 -44 -3 -86 -9 -93 -15 -17 -14 -129 -24
-169 -16 -39 8 -106 72 -115 110 -3 16 -9 37 -14 48 -16 35 -40 115 -40 130 0
8 -4 15 -10 15 -5 0 -10 7 -10 16 0 29 -120 196 -211 292 -50 54 -108 122
-129 152 -21 30 -51 65 -66 77 -111 88 -165 125 -204 143 -25 11 -58 27 -75
36 -16 8 -61 18 -100 21 -41 3 -105 18 -155 36 l-85 31 -320 3 c-176 1 -332
-2 -346 -6z m601 -84 c36 -8 88 -18 115 -21 28 -4 68 -11 89 -16 22 -5 44 -6
48 -4 5 3 14 1 21 -4 7 -6 32 -15 57 -22 60 -16 124 -45 140 -65 7 -8 17 -15
22 -15 18 0 127 -84 128 -98 0 -7 16 -28 35 -48 19 -19 35 -36 35 -38 0 -2 19
-24 43 -49 23 -24 56 -62 73 -83 18 -22 48 -55 68 -74 20 -19 36 -39 36 -43 0
-4 9 -18 21 -30 55 -58 97 -138 105 -202 15 -118 54 -193 132 -253 51 -39 101
-51 196 -49 62 2 89 7 116 23 77 45 105 41 175 -29 50 -49 139 -118 191 -148
21 -12 57 -33 79 -46 22 -12 47 -26 55 -30 8 -3 17 -9 20 -12 16 -19 90 -69
118 -80 17 -8 32 -17 32 -22 0 -5 6 -9 14 -9 8 0 21 -6 28 -13 15 -15 143 -77
158 -77 6 0 10 -4 10 -9 0 -5 17 -15 38 -22 20 -6 39 -15 42 -18 3 -4 28 -15
55 -25 50 -19 100 -41 230 -101 169 -79 203 -95 238 -119 21 -14 50 -32 65
-40 15 -8 42 -28 61 -45 19 -16 39 -27 44 -24 6 3 7 1 3 -5 -9 -14 15 -52 32
-52 7 0 10 -4 7 -10 -3 -5 5 -19 18 -30 15 -13 24 -33 25 -51 0 -17 5 -36 10
-42 18 -23 45 -304 39 -397 -6 -78 -10 -95 -40 -142 -19 -29 -52 -71 -74 -93
-41 -43 -45 -45 -277 -164 -143 -72 -153 -76 -220 -77 -77 -1 -113 10 -135 40
-8 11 -22 27 -30 36 -21 21 -47 76 -56 120 -23 112 -54 172 -124 240 -31 31
-68 71 -81 90 -66 94 -199 227 -265 266 -52 32 -130 65 -143 62 -4 -1 -26 4
-50 11 -23 6 -46 10 -51 7 -5 -3 -29 1 -55 8 -25 8 -55 12 -66 9 -11 -3 -20
-1 -20 4 0 6 -11 8 -25 5 -14 -2 -25 0 -25 4 0 5 -10 9 -22 10 -58 3 -145 14
-162 20 -12 5 -17 4 -13 -2 3 -6 -16 -9 -51 -8 -60 3 -160 -13 -177 -28 -5 -4
-16 -8 -25 -8 -28 0 -93 -37 -145 -82 -27 -23 -51 -46 -53 -49 -1 -3 -17 -21
-33 -40 -58 -63 -85 -148 -120 -364 -13 -82 -19 -142 -19 -195 1 -38 5 -49 33
-72 31 -26 107 -43 107 -25 0 5 9 7 20 4 11 -3 20 -1 20 4 0 5 7 9 15 9 19 0
85 32 85 41 0 4 12 10 26 13 15 4 59 22 98 40 39 19 81 37 94 41 12 3 22 11
22 16 0 5 6 9 14 9 19 0 116 60 116 71 0 5 7 9 15 9 8 0 23 13 34 30 10 16 21
27 24 24 4 -4 9 1 13 10 3 9 12 16 18 16 7 0 17 5 24 12 20 20 130 27 142 8 4
-6 14 -10 22 -8 22 5 116 -83 129 -119 6 -18 15 -33 21 -33 5 0 9 -12 8 -27
-1 -16 -1 -30 0 -33 8 -24 15 -133 13 -212 -1 -85 -5 -105 -30 -155 -31 -65
-133 -205 -165 -227 -87 -61 -214 -186 -393 -388 -39 -44 -126 -118 -175 -149
-28 -18 -180 -52 -201 -45 -8 3 -32 7 -54 10 -60 8 -109 18 -115 25 -13 16
-130 75 -142 73 -5 -1 -8 3 -8 8 0 6 -7 10 -15 10 -8 0 -23 4 -33 9 -92 47
-127 62 -193 79 -78 22 -200 22 -225 1 -6 -5 -24 -6 -40 -3 -18 3 -54 -3 -89
-14 -67 -23 -126 -37 -139 -34 -4 2 -14 -2 -22 -9 -7 -6 -30 -13 -51 -16 -20
-3 -47 -11 -58 -19 -18 -12 -75 -28 -135 -37 -8 -1 -37 -10 -65 -19 -30 -10
-92 -19 -155 -21 -133 -4 -186 -26 -263 -106 -79 -82 -103 -143 -100 -256 2
-110 33 -251 75 -354 36 -86 63 -115 497 -531 218 -210 432 -445 507 -559 17
-25 47 -60 67 -78 20 -18 37 -38 37 -44 0 -7 3 -9 7 -6 7 8 43 -21 43 -36 0
-5 20 -30 45 -55 25 -25 45 -51 45 -59 0 -7 4 -13 8 -13 8 0 88 -101 174 -218
15 -20 32 -42 38 -49 17 -21 24 -93 10 -118 -19 -36 -8 -120 20 -150 23 -25
23 -26 4 -140 -4 -22 -10 -42 -13 -45 -4 -3 -15 -25 -26 -49 -23 -51 -113
-146 -141 -148 -10 -1 -28 -2 -39 -3 -11 -1 -54 7 -95 19 -41 11 -106 28 -145
37 -38 9 -74 20 -80 24 -5 4 -28 11 -50 15 -22 3 -54 15 -71 26 -17 10 -39 19
-48 19 -9 0 -16 4 -16 9 0 5 -8 12 -19 16 -36 11 -133 117 -193 213 -22 34
-44 62 -49 62 -5 0 -9 7 -9 15 0 8 -16 30 -35 49 -62 62 -112 38 -229 -108
-17 -22 -41 -49 -53 -61 -13 -12 -23 -25 -23 -29 0 -7 -12 -23 -42 -57 -10
-10 -19 -22 -19 -26 -1 -5 -10 -26 -21 -49 -19 -41 -32 -174 -18 -174 4 0 7
-6 7 -13 -4 -47 49 -145 113 -207 47 -46 160 -179 160 -189 0 -6 7 -11 15 -11
8 0 15 -5 15 -10 0 -6 15 -25 33 -43 61 -61 87 -103 84 -137 -7 -60 -95 -75
-112 -19 -4 10 -10 18 -14 16 -10 -2 -101 106 -101 120 0 5 -9 18 -20 28 -11
10 -20 24 -20 32 0 8 -4 12 -9 9 -4 -3 -13 5 -19 18 -39 87 -162 204 -251 242
-46 19 -133 91 -162 134 -54 79 -73 140 -73 235 -1 94 4 128 25 167 17 33 76
118 102 148 63 73 100 207 79 286 -13 47 -67 132 -111 174 -32 31 -91 60 -123
60 -12 1 -34 7 -48 15 -14 8 -36 14 -51 15 -14 0 -29 4 -35 9 -5 6 -25 12 -44
14 -20 2 -40 6 -45 9 -6 3 -55 18 -110 33 -290 79 -435 124 -455 139 -8 7 -28
18 -45 26 -16 8 -34 21 -38 27 -4 7 -14 13 -21 13 -13 0 -86 73 -86 86 0 4
-14 25 -30 48 -203 276 -240 352 -245 508 -2 54 0 110 5 125 5 16 14 48 21 73
7 25 27 77 45 115 17 39 34 77 38 85 3 8 10 22 16 30 11 17 92 192 122 265 12
28 26 56 31 63 18 23 67 127 67 142 1 30 29 53 67 54 l38 1 0 -80 c0 -44 -5
-111 -12 -150 -7 -38 -15 -90 -18 -115 -3 -25 -10 -56 -16 -70 -5 -14 -8 -36
-6 -49 2 -13 -5 -62 -15 -110 -9 -47 -18 -121 -18 -164 0 -76 1 -79 35 -115
19 -20 35 -40 35 -44 0 -5 4 -8 10 -8 5 0 26 -11 46 -25 20 -14 43 -25 51 -25
8 0 26 -11 41 -25 15 -14 32 -25 39 -25 7 0 13 -4 13 -9 0 -5 15 -16 33 -25
17 -9 44 -25 59 -34 57 -37 138 -82 147 -82 5 0 14 -7 21 -15 15 -18 116 -65
141 -65 10 0 20 -4 23 -9 3 -4 34 -16 68 -26 35 -9 66 -21 69 -26 3 -5 25 -11
49 -14 24 -2 46 -8 49 -12 3 -5 26 -15 51 -22 25 -8 63 -19 85 -26 91 -28 113
-28 139 0 15 16 22 33 19 43 -8 22 -44 62 -56 62 -6 0 -25 11 -43 25 -18 14
-37 25 -43 25 -6 0 -11 5 -11 10 0 6 -6 10 -14 10 -18 0 -108 86 -137 131 -94
143 -159 237 -173 248 -9 7 -16 17 -16 22 0 5 -20 39 -43 76 -64 99 -123 223
-133 278 -4 23 -75 281 -81 295 -3 8 -7 17 -8 20 -5 14 -18 47 -25 65 -17 38
-21 59 -42 180 -6 39 -14 72 -17 75 -16 14 -9 105 13 191 26 98 45 138 104
211 18 23 36 54 39 70 3 17 12 32 19 35 8 3 12 8 10 12 -3 4 4 38 14 76 10 40
21 127 24 200 7 139 13 190 28 218 5 10 11 30 13 45 5 40 31 143 44 175 6 15
10 31 9 35 -4 14 13 52 23 52 6 0 8 8 5 18 -4 12 1 21 17 28 12 5 21 16 19 23
-1 7 7 15 18 18 11 3 20 9 20 14 0 5 12 14 27 20 35 13 114 18 107 7 -3 -4 4
-8 16 -8 27 0 70 -28 70 -46 0 -8 11 -19 24 -24 16 -6 26 -19 30 -43 8 -45
-16 -204 -41 -267 -6 -14 -22 -74 -37 -135 -15 -60 -31 -125 -35 -143 -5 -17
-8 -84 -7 -147 2 -102 5 -118 24 -142 12 -16 27 -38 32 -50 5 -13 14 -23 20
-23 5 0 10 -7 10 -15 0 -8 8 -15 18 -15 10 0 21 -3 25 -6 3 -3 26 -8 51 -10
34 -2 56 3 89 22 50 28 56 34 85 85 15 28 22 63 27 145 3 60 10 126 16 146 5
20 9 40 8 45 -1 4 3 21 9 36 7 16 12 33 12 38 0 5 4 17 9 27 15 27 41 89 41
96 0 4 8 23 17 44 9 20 17 42 18 47 1 6 5 17 8 25 3 8 19 54 35 101 17 47 34
94 40 105 12 22 28 65 31 79 1 6 10 19 20 30 25 30 99 140 103 154 2 6 22 33
46 59 23 26 52 66 63 89 11 23 27 47 36 54 8 7 29 37 45 66 16 29 33 53 37 53
4 0 14 13 24 29 15 26 157 175 157 165 0 -3 17 12 38 33 79 79 165 153 178
153 7 0 16 9 19 20 3 11 10 20 15 20 12 0 88 82 111 120 11 17 17 35 14 41 -4
5 1 9 10 9 9 0 15 6 13 13 -1 6 7 30 18 52 25 50 29 87 28 250 -1 197 -14 275
-56 354 -51 95 -105 134 -229 167 -59 16 -72 16 -130 3 -67 -15 -117 -48 -240
-161 -10 -10 -42 -30 -71 -45 -29 -16 -54 -31 -56 -35 -2 -5 -8 -8 -13 -8 -6
0 -106 -42 -223 -94 -117 -52 -228 -95 -247 -96 -82 -4 -99 21 -87 139 4 42 9
108 12 146 5 62 12 108 32 210 6 29 21 67 77 185 28 61 88 129 172 198 36 29
98 59 150 71 62 14 448 6 525 -12z m5696 -4038 c6 -5 13 -6 16 -4 5 6 68 -46
119 -98 36 -37 42 -80 53 -357 3 -63 10 -140 15 -170 10 -52 77 -201 94 -208
4 -2 7 -10 7 -18 0 -9 5 -12 10 -9 6 3 10 1 10 -6 0 -13 38 -49 52 -49 4 0 8
-4 8 -10 0 -25 79 -84 196 -145 48 -25 99 -55 114 -65 16 -11 31 -20 35 -20 4
0 16 -12 27 -26 11 -14 27 -23 34 -20 8 3 14 -1 14 -9 0 -7 9 -17 20 -20 11
-3 20 -10 20 -14 0 -5 24 -27 53 -49 28 -21 77 -63 107 -91 133 -126 150 -141
150 -134 0 5 8 -4 18 -20 10 -15 22 -24 25 -20 4 3 7 0 7 -7 0 -7 17 -31 38
-53 20 -22 56 -61 80 -86 23 -25 42 -51 42 -58 0 -7 9 -17 20 -23 11 -6 20
-17 20 -25 0 -8 9 -20 20 -27 11 -7 20 -16 20 -21 0 -13 103 -119 231 -238 41
-38 204 -122 259 -134 19 -4 40 -11 45 -15 9 -7 53 -18 143 -35 13 -2 123 -7
245 -11 122 -3 233 -7 247 -9 14 -1 41 -3 61 -4 27 -1 48 -12 87 -47 29 -26
52 -53 52 -60 0 -8 4 -14 9 -14 5 0 18 -17 28 -37 10 -20 30 -46 45 -57 60
-43 265 -53 458 -21 19 3 55 8 80 11 25 3 50 10 57 16 7 5 18 8 25 5 7 -2 21
0 31 5 23 12 56 20 79 20 10 -1 20 3 23 9 4 5 15 9 26 9 10 0 19 4 19 9 0 5
15 14 33 21 57 21 76 33 71 42 -3 4 3 8 12 8 18 0 116 58 122 73 2 4 18 15 35
23 17 9 51 35 75 58 24 22 51 45 60 50 17 10 142 134 142 142 0 2 17 21 38 43
41 42 65 72 173 206 65 80 111 135 170 201 10 12 19 26 19 32 0 5 7 12 15 16
8 3 15 12 15 21 0 8 4 15 8 15 7 0 74 84 122 155 8 12 33 43 55 69 22 26 50
59 62 74 13 15 23 30 23 35 0 4 7 7 15 7 8 0 15 4 15 9 0 5 23 32 50 60 28 28
48 51 45 51 -2 0 21 24 51 53 31 28 103 98 161 155 99 95 114 107 137 103 5
-1 6 5 2 14 -4 11 -2 15 6 13 13 -5 55 32 51 44 -2 5 2 8 8 8 6 0 34 20 61 45
28 25 54 42 59 39 5 -3 9 1 9 9 0 7 11 20 25 27 48 26 72 130 30 130 -8 0 -26
10 -40 22 -14 12 -35 23 -48 25 -12 2 -132 5 -267 7 -183 2 -255 0 -283 -10
-20 -7 -40 -13 -42 -13 -17 2 -143 -13 -155 -18 -8 -4 -18 -7 -22 -8 -5 -2 -9
-3 -10 -5 -2 -1 -12 -3 -23 -5 -30 -5 -109 -19 -120 -20 -5 -1 -17 -5 -25 -8
-8 -3 -28 -8 -45 -10 -30 -4 -40 -7 -105 -32 -19 -8 -53 -17 -75 -20 -54 -7
-78 -15 -88 -29 -6 -8 -10 -7 -14 3 -3 7 -8 9 -12 4 -5 -7 -115 -64 -131 -68
-3 0 -24 -11 -47 -23 -24 -12 -43 -20 -43 -17 0 3 -31 -11 -70 -30 -38 -19
-76 -35 -84 -35 -7 0 -19 -6 -25 -14 -7 -8 -25 -18 -41 -21 -16 -3 -31 -12
-33 -19 -6 -15 -81 -56 -102 -56 -8 0 -20 -9 -28 -20 -8 -12 -20 -18 -30 -15
-17 7 -77 -20 -77 -35 0 -9 -82 -50 -130 -65 -14 -4 -32 -12 -40 -19 -41 -30
-59 -35 -89 -25 -23 8 -31 17 -31 34 0 40 18 73 47 89 15 8 25 15 21 16 -12 0
63 69 84 76 16 5 18 8 7 15 -10 6 -6 11 14 18 16 6 32 11 35 11 4 0 15 8 23
18 25 27 71 64 83 66 21 4 76 36 76 45 0 5 11 12 25 15 14 4 25 11 25 16 0 6
6 10 13 10 8 0 22 9 32 20 10 11 26 20 35 20 9 0 20 4 25 9 17 16 169 91 185
91 9 0 21 5 28 12 7 7 12 8 12 3 0 -4 9 0 20 10 10 9 26 15 34 12 8 -3 17 1
20 9 3 8 9 13 13 13 9 -2 76 25 114 46 14 8 29 12 33 8 3 -3 6 -1 6 6 0 9 11
12 34 9 19 -2 32 0 30 4 -5 7 10 12 28 9 14 -2 133 31 145 41 6 5 33 11 60 14
26 2 49 8 51 14 2 6 8 7 13 4 6 -3 18 -2 27 2 9 4 24 8 32 10 35 6 77 15 108
24 19 5 40 6 48 3 8 -3 14 0 14 5 0 6 8 10 18 10 9 0 35 2 57 5 154 25 509 24
620 0 17 -4 40 -5 53 -4 12 1 22 -2 22 -8 0 -6 13 -11 30 -11 32 0 53 -7 155
-56 79 -38 105 -57 130 -97 18 -29 29 -127 14 -127 -5 0 -9 -11 -9 -25 0 -24
-49 -85 -120 -149 -19 -17 -58 -53 -87 -81 -29 -27 -64 -59 -79 -70 -14 -11
-41 -34 -58 -50 -18 -17 -48 -42 -67 -56 -19 -14 -56 -47 -84 -73 -59 -55 -84
-76 -89 -76 -2 0 -23 -19 -47 -41 -130 -123 -169 -163 -174 -180 -4 -10 -12
-19 -19 -19 -7 0 -21 -16 -32 -35 -10 -19 -21 -35 -24 -35 -7 0 -85 -101 -85
-110 0 -3 -10 -16 -22 -30 -13 -13 -23 -30 -23 -37 0 -7 -11 -18 -25 -23 -14
-5 -25 -14 -25 -20 0 -9 -30 -47 -71 -91 -9 -9 -18 -21 -20 -26 -6 -15 -61
-84 -90 -113 -14 -14 -40 -46 -58 -72 -18 -27 -37 -48 -43 -48 -6 0 -8 -3 -5
-7 4 -3 -2 -12 -13 -20 -11 -8 -20 -19 -20 -24 0 -6 -16 -27 -35 -47 -19 -20
-35 -43 -35 -49 0 -7 -7 -13 -15 -13 -8 0 -15 -5 -15 -12 0 -6 -17 -27 -38
-47 -22 -20 -47 -48 -57 -63 -9 -15 -20 -26 -24 -23 -4 2 -21 -14 -37 -35 -16
-22 -37 -40 -46 -40 -10 0 -18 -7 -18 -15 0 -8 -4 -15 -8 -15 -4 0 -30 -21
-58 -47 -27 -27 -75 -66 -107 -87 -31 -22 -57 -43 -57 -48 0 -4 -5 -8 -10 -8
-10 0 -30 -20 -70 -67 -13 -15 -13 -36 0 -49 15 -15 15 -86 -1 -118 -8 -16
-23 -34 -34 -40 -11 -6 -23 -15 -27 -21 -8 -11 -68 -16 -68 -6 0 4 -28 13 -62
20 -118 25 -120 25 -177 -21 -54 -44 -51 -38 -101 -215 -11 -40 -27 -78 -34
-85 -48 -47 -111 -90 -161 -110 -66 -27 -78 -31 -117 -35 -33 -3 -40 -1 -49
21 -7 14 -17 22 -23 19 -6 -4 -5 0 2 9 17 22 18 334 1 383 -11 30 -19 35 -61
45 -60 12 -108 13 -108 1 0 -5 -13 -14 -30 -21 -51 -21 -50 -18 -74 -250 -2
-19 -9 -53 -15 -75 -7 -22 -13 -51 -15 -65 -3 -28 -50 -227 -65 -277 -5 -18
-21 -61 -34 -95 -75 -189 -100 -254 -100 -265 0 -7 -4 -13 -8 -13 -4 0 -10
-12 -14 -27 -8 -34 -25 -72 -106 -236 -87 -174 -89 -179 -109 -202 -9 -11 -24
-37 -34 -57 -9 -20 -22 -43 -29 -50 -7 -7 -23 -34 -36 -61 -12 -26 -27 -47
-32 -47 -5 0 -9 -6 -9 -14 0 -8 -4 -16 -9 -18 -11 -4 -121 -164 -121 -176 0
-6 -7 -12 -15 -16 -8 -3 -15 -11 -15 -18 0 -7 -14 -29 -30 -48 -16 -19 -30
-40 -30 -47 0 -7 -10 -23 -22 -37 -40 -43 -56 -64 -68 -87 -7 -12 -25 -36 -40
-53 -103 -117 -145 -161 -244 -261 -61 -61 -141 -143 -178 -181 -36 -38 -108
-111 -160 -161 -51 -51 -111 -111 -133 -134 -22 -23 -74 -69 -115 -102 -41
-34 -81 -67 -88 -74 -7 -7 -18 -13 -22 -13 -5 0 -45 -30 -89 -68 -44 -37 -94
-76 -110 -87 -17 -11 -61 -41 -98 -66 -119 -81 -163 -107 -242 -145 -42 -20
-138 -67 -214 -105 -77 -38 -155 -71 -175 -75 -21 -4 -46 -11 -57 -17 -32 -17
-41 -18 -200 -22 -162 -4 -227 5 -345 48 -89 33 -119 48 -250 125 -75 45 -87
52 -141 89 -26 17 -68 43 -95 58 -65 35 -110 63 -170 105 -27 19 -67 44 -89
55 -22 11 -44 24 -50 28 -5 4 -53 39 -105 78 -52 39 -106 82 -121 95 -14 13
-30 24 -37 24 -7 0 -12 4 -12 9 0 6 -181 154 -255 209 -45 32 -125 101 -148
126 -15 17 -42 47 -60 66 -19 19 -49 58 -67 85 -19 28 -37 52 -40 55 -4 3 -28
31 -53 63 -26 32 -56 68 -67 80 -11 11 -20 24 -20 27 0 4 -11 20 -25 36 -30
34 -261 340 -326 432 -24 34 -60 84 -79 110 -19 25 -50 69 -67 97 -18 27 -42
65 -54 83 -12 17 -25 32 -30 32 -5 0 -9 5 -9 12 0 6 -8 20 -17 31 -25 27 -86
130 -123 207 -18 36 -35 72 -40 80 -4 9 -11 31 -15 50 -4 19 -11 40 -15 45 -4
6 -21 53 -38 105 -56 172 -132 395 -142 412 -6 10 -10 25 -10 33 0 8 -4 23 -9
33 -12 21 -23 52 -26 72 -2 8 -12 47 -23 85 -11 39 -22 88 -25 110 -20 154
-45 260 -69 302 -23 38 -31 40 -213 47 -163 7 -276 16 -295 23 -8 3 -21 7 -28
9 -66 13 -124 30 -157 44 -22 10 -58 23 -80 31 -22 7 -48 20 -57 28 -10 8 -18
11 -18 7 0 -3 -15 1 -32 11 -18 9 -35 17 -38 18 -3 0 -16 8 -30 16 -14 9 -44
27 -67 40 -67 39 -154 103 -207 153 -26 25 -61 54 -77 63 -16 10 -29 21 -29
25 0 8 -59 68 -101 104 -13 11 -40 39 -59 63 -19 23 -55 64 -80 91 -25 27 -70
80 -100 117 -30 37 -65 77 -76 89 -12 13 -19 25 -16 28 3 4 -9 19 -26 34 -18
16 -32 34 -32 40 0 5 -3 12 -7 14 -9 3 -48 50 -78 92 -19 28 -165 205 -209
256 -12 14 -29 35 -37 48 -65 92 -323 338 -550 522 -138 113 -277 254 -301
309 -22 47 -19 91 9 145 18 34 82 96 101 96 7 0 32 10 55 22 38 20 79 30 117
30 8 0 31 5 50 11 49 15 65 16 345 20 266 4 396 -4 485 -30 30 -9 64 -17 75
-19 38 -5 271 -72 308 -89 10 -4 21 -5 24 -1 4 3 17 -1 29 -9 12 -8 37 -16 56
-18 18 -2 54 -14 80 -25 26 -12 50 -22 53 -22 8 0 58 -21 120 -50 47 -22 87
-35 97 -32 5 1 8 -2 8 -7 0 -9 33 -23 58 -25 7 -1 16 -6 20 -12 4 -6 37 -26
74 -44 36 -18 64 -38 62 -44 -2 -6 8 -17 23 -23 52 -22 158 -85 166 -98 4 -8
22 -23 41 -34 40 -25 116 -95 116 -107 0 -5 14 -18 30 -29 16 -11 30 -26 30
-32 0 -7 5 -13 10 -13 12 0 13 -40 2 -56 -14 -20 -45 -25 -68 -9 -13 9 -24 13
-24 11 0 -3 -21 6 -46 19 -26 14 -53 25 -60 25 -7 0 -17 6 -21 13 -11 16 -49
37 -68 37 -9 0 -13 5 -10 10 3 6 -1 10 -10 10 -16 0 -56 20 -66 33 -3 5 -12
10 -20 12 -38 9 -59 18 -59 26 0 5 -9 9 -20 9 -11 0 -20 5 -20 11 0 6 -7 9
-15 6 -8 -4 -17 -2 -20 3 -3 5 -20 16 -38 23 -44 20 -76 35 -117 57 -34 18
-113 50 -270 109 -64 24 -127 45 -275 91 -16 5 -46 12 -65 15 -19 3 -57 13
-85 21 -27 9 -63 18 -80 20 -16 3 -50 9 -75 14 -25 5 -70 12 -100 16 -30 4
-68 9 -85 11 -16 3 -121 6 -233 7 -325 4 -453 -28 -413 -101 14 -27 142 -145
236 -218 32 -25 147 -121 192 -160 103 -89 322 -326 413 -445 19 -25 37 -47
40 -50 3 -3 18 -23 34 -45 17 -22 53 -67 81 -100 28 -33 80 -97 114 -142 35
-46 67 -83 71 -83 4 0 11 -10 17 -22 13 -29 141 -184 201 -243 12 -12 22 -25
22 -27 0 -10 86 -95 108 -107 12 -6 22 -16 22 -22 0 -5 14 -22 31 -37 17 -15
40 -35 51 -46 18 -16 33 -22 61 -25 4 -1 7 -8 7 -16 0 -8 9 -15 20 -15 11 0
20 -7 20 -16 0 -8 14 -20 30 -25 17 -6 30 -14 30 -18 0 -4 29 -20 64 -36 36
-16 62 -33 59 -38 -3 -6 -1 -7 6 -3 6 4 17 3 24 -2 21 -16 152 -62 191 -67 21
-3 45 -12 53 -21 13 -13 17 -13 24 -2 5 7 9 8 9 2 0 -13 101 -25 265 -30 l119
-4 33 35 c18 19 34 42 34 50 2 20 3 24 22 67 10 21 17 40 17 44 0 9 79 84 88
84 4 0 21 12 37 28 17 15 38 28 48 30 9 2 39 14 66 27 27 14 52 25 56 25 4 0
37 14 74 32 36 18 71 33 76 34 6 1 19 4 30 7 20 4 56 19 145 61 24 12 47 20
51 19 7 -2 35 9 144 57 17 7 39 15 50 17 11 2 38 12 61 23 22 11 47 20 55 20
8 0 23 6 34 13 11 8 43 22 70 33 28 10 61 24 75 31 14 7 32 13 41 13 9 0 19 3
23 8 4 4 11 7 14 7 15 1 150 49 197 70 64 29 125 52 150 59 39 11 231 32 360
40 96 7 186 23 199 36 6 6 18 10 29 10 26 0 197 79 197 91 0 4 8 9 18 13 38
13 111 63 153 106 24 25 59 56 76 70 50 40 190 221 229 295 12 22 31 56 42 75
71 118 119 229 154 355 11 39 23 84 28 100 45 162 105 292 156 337 21 18 43
39 50 46 7 6 17 12 23 12 6 0 11 4 11 9 0 20 161 19 186 0z m-5271 -617 c39
-11 99 -28 135 -38 68 -17 185 -59 281 -100 31 -13 59 -24 63 -24 14 0 294
-140 308 -154 9 -8 42 -29 74 -46 33 -18 68 -41 80 -51 11 -10 26 -19 32 -19
7 0 12 -5 12 -10 0 -6 12 -16 27 -23 15 -6 36 -20 45 -29 10 -10 25 -18 34
-18 8 0 13 -4 10 -8 -2 -4 9 -14 25 -21 16 -7 29 -19 29 -27 0 -8 5 -14 10
-14 6 0 10 -7 10 -15 0 -8 4 -15 10 -15 5 0 27 -19 50 -42 32 -34 40 -49 40
-79 0 -24 -5 -39 -15 -43 -8 -3 -15 -1 -15 4 0 6 -9 10 -20 10 -12 0 -44 15
-73 33 -67 42 -102 57 -132 57 -22 0 -25 -5 -25 -32 1 -18 9 -51 20 -73 11
-22 19 -45 20 -50 0 -15 158 -195 171 -195 5 0 13 -8 17 -18 12 -30 96 -131
110 -131 6 -1 12 -6 12 -12 0 -6 15 -30 32 -53 18 -22 37 -47 43 -54 5 -7 18
-22 28 -33 9 -10 17 -25 17 -33 0 -8 5 -18 10 -21 14 -9 1 -56 -21 -79 -11
-12 -31 -19 -51 -19 -43 1 -151 29 -203 52 -101 47 -100 46 -180 60 -77 14
-88 14 -79 -1 5 -7 3 -8 -6 -3 -13 8 -33 12 -100 20 -19 3 -43 6 -52 8 -32 6
-85 77 -73 98 4 5 3 15 -3 22 -5 7 -21 50 -36 96 -48 148 -83 207 -182 308
-51 53 -98 93 -109 93 -38 0 -103 32 -109 53 -7 30 9 53 64 90 66 44 86 72 93
131 8 59 -6 119 -35 146 -12 11 -54 30 -92 42 -39 13 -73 25 -76 29 -5 6 -42
14 -114 26 -15 2 -54 13 -85 23 -32 10 -89 21 -127 25 -113 12 -173 48 -174
106 0 38 20 58 70 67 66 12 126 7 205 -16z m10211 -33 c3 -5 18 -9 33 -9 24 0
29 -5 34 -32 3 -18 8 -40 12 -49 6 -17 -25 -36 -85 -50 -19 -5 -73 -17 -120
-29 -47 -11 -96 -22 -110 -24 -38 -7 -254 -77 -266 -87 -6 -5 -14 -6 -17 -2
-4 3 -17 -3 -30 -14 -12 -12 -31 -23 -42 -25 -23 -4 -54 -76 -54 -130 -1 -35
26 -98 42 -98 4 0 7 -7 7 -15 0 -8 5 -15 12 -15 6 0 9 -3 6 -6 -8 -7 27 -43
44 -46 21 -5 48 -45 48 -71 0 -20 -9 -29 -40 -43 -22 -10 -40 -21 -40 -24 0
-3 -16 -12 -35 -19 -19 -7 -35 -19 -35 -27 0 -8 -11 -19 -25 -24 -14 -5 -25
-14 -25 -20 0 -6 -8 -14 -17 -17 -20 -7 -53 -42 -53 -55 0 -4 -6 -8 -14 -8 -8
0 -20 -13 -28 -30 -7 -16 -16 -30 -20 -30 -5 0 -8 -5 -8 -11 0 -6 -11 -24 -25
-41 -14 -16 -25 -40 -25 -53 0 -13 -6 -30 -13 -37 -16 -16 -25 -52 -32 -128
-2 -30 -9 -56 -15 -58 -5 -2 -10 -9 -10 -15 0 -23 -46 -41 -110 -43 -147 -5
-167 -7 -200 -22 -19 -8 -46 -16 -60 -17 -22 -3 -77 -20 -145 -46 -11 -4 -39
-14 -61 -23 -23 -8 -45 -12 -48 -8 -4 3 -10 1 -14 -5 -9 -15 -90 3 -111 25
-18 17 -20 80 -3 94 6 6 12 17 12 26 0 8 3 13 6 9 8 -7 23 8 48 48 11 17 30
38 43 48 13 10 21 23 18 28 -4 5 -2 9 3 9 5 0 21 17 34 38 14 20 50 63 82 94
31 32 56 62 56 68 0 6 15 25 33 43 17 18 39 43 47 56 8 13 20 29 25 35 29 34
70 121 69 146 -3 44 -5 50 -23 50 -11 0 -23 -4 -26 -10 -3 -5 -25 -19 -48 -30
-23 -11 -62 -32 -87 -47 -25 -16 -52 -28 -60 -28 -40 1 -53 40 -24 69 8 9 12
20 9 26 -3 5 1 10 10 10 8 0 18 7 21 15 6 16 64 81 64 72 0 -3 19 14 43 37 23
23 61 55 85 70 23 16 42 33 42 37 0 5 6 9 13 9 7 0 24 10 37 23 14 12 28 21
32 20 5 -2 8 0 8 5 0 4 13 13 28 20 16 6 38 21 50 32 12 11 26 20 32 20 6 0
21 5 33 12 12 7 28 13 35 14 8 1 22 10 31 18 10 9 22 16 28 16 6 0 13 5 15 12
2 6 12 13 21 15 9 1 23 4 30 6 7 1 24 12 37 24 12 12 26 20 31 18 4 -3 15 2
23 11 9 8 16 13 16 10 0 -6 60 15 127 45 24 10 47 19 52 19 5 0 11 4 13 10 2
5 21 11 43 13 22 2 50 9 61 15 11 6 31 12 45 14 13 2 33 9 44 15 11 6 25 12
30 13 6 2 15 4 20 6 54 16 188 43 195 39 5 -3 11 -2 14 3 6 11 64 3 72 -9z"/>
<path d="M7995 5444 c-17 -23 -47 -94 -40 -94 2 0 -1 -17 -6 -37 -14 -59 -47
-233 -55 -288 -9 -71 -17 -81 -81 -105 -54 -20 -99 -30 -331 -74 -127 -25
-177 -59 -152 -106 18 -34 75 -55 230 -85 218 -43 283 -63 308 -94 14 -17 21
-43 47 -171 57 -282 70 -324 109 -341 49 -23 95 53 116 191 20 132 55 279 70
294 6 6 10 18 10 28 0 27 42 49 112 58 83 12 290 55 355 75 61 18 79 51 58
102 -12 27 -20 32 -62 38 -69 9 -187 34 -263 55 -36 10 -83 21 -105 25 -58 10
-94 32 -110 68 -8 18 -33 124 -56 237 -23 113 -49 215 -57 228 -21 32 -71 30
-97 -4z m83 -267 c6 -28 16 -83 22 -122 17 -108 33 -156 59 -176 27 -21 99
-45 182 -59 80 -14 91 -17 133 -34 33 -14 37 -18 26 -32 -20 -23 -46 -34 -103
-45 -29 -5 -65 -12 -82 -15 -59 -10 -123 -35 -149 -58 -17 -14 -33 -43 -42
-77 -15 -57 -45 -195 -47 -216 0 -7 -4 -13 -9 -13 -4 0 -8 -8 -8 -18 0 -18
-18 -42 -30 -42 -10 0 -27 64 -41 150 -14 93 -46 200 -66 221 -14 16 -81 37
-212 65 -74 16 -121 35 -121 49 1 30 43 49 147 65 77 13 149 36 183 60 30 22
51 95 85 304 4 21 12 47 18 57 10 16 13 17 28 3 9 -8 21 -38 27 -67z"/>
<path d="M5899 4793 c-14 -36 3 -73 44 -97 38 -23 205 -106 212 -106 2 0 44
-18 92 -41 49 -23 149 -67 223 -99 74 -32 176 -77 225 -100 50 -23 115 -54
145 -67 277 -127 382 -203 492 -358 61 -86 94 -149 125 -240 29 -87 63 -271
56 -307 -8 -40 -42 -67 -183 -141 -185 -97 -260 -131 -310 -141 -19 -4 -55
-15 -80 -24 -57 -21 -338 -24 -415 -4 -27 7 -59 14 -70 17 -28 6 -142 41 -185
57 -19 7 -74 37 -122 66 -48 28 -91 52 -97 52 -5 0 -11 3 -13 8 -1 4 -28 26
-58 49 -30 23 -82 67 -115 99 -90 85 -127 107 -165 99 -43 -9 -57 -42 -36 -82
20 -40 155 -176 231 -234 150 -114 257 -169 435 -222 173 -52 197 -56 395 -62
137 -4 157 -2 230 20 98 29 152 49 161 58 4 4 13 7 20 7 25 0 289 135 325 166
8 8 30 14 47 14 29 0 31 -3 37 -42 3 -24 7 -223 9 -443 2 -272 7 -421 16 -465
38 -195 184 -357 363 -404 136 -35 352 -7 423 56 11 10 24 18 30 18 21 1 101
87 137 148 77 131 79 147 83 587 2 215 4 415 4 446 0 40 4 58 14 62 8 3 61
-17 118 -45 105 -51 208 -94 309 -129 74 -26 86 -28 238 -50 105 -14 248 -7
396 21 83 15 96 19 149 37 28 9 53 18 56 18 50 8 196 73 318 141 52 29 231
172 290 231 68 69 82 126 35 144 -49 18 -84 3 -165 -75 -43 -41 -102 -90 -132
-110 -30 -20 -61 -42 -68 -50 -44 -43 -307 -158 -393 -171 -27 -4 -59 -12 -69
-17 -31 -17 -193 -38 -287 -38 -137 0 -249 23 -434 89 -73 26 -284 142 -313
171 -32 33 -34 38 -29 90 3 30 8 82 11 116 3 33 15 90 26 125 11 35 20 73 20
83 0 35 91 209 147 281 47 61 166 174 184 175 4 0 34 18 67 40 33 22 67 40 75
40 9 0 18 4 21 8 2 4 35 23 73 41 37 18 77 38 88 44 130 72 357 187 371 187 5
0 29 14 52 31 38 28 42 35 42 73 0 90 -49 89 -220 -6 -30 -17 -183 -95 -338
-174 -347 -176 -418 -228 -541 -402 -119 -168 -179 -344 -201 -587 -5 -55 -14
-125 -20 -155 -15 -73 -19 -218 -20 -670 -2 -417 -4 -433 -70 -528 -47 -66
-81 -95 -164 -138 -68 -36 -75 -38 -166 -38 -90 0 -99 2 -166 36 -82 42 -137
99 -184 190 -39 74 -38 70 -45 613 -5 458 -15 569 -82 860 -39 173 -146 373
-258 480 -169 163 -182 171 -609 360 -116 51 -245 109 -286 128 -397 184 -453
207 -502 207 -33 0 -40 -4 -49 -27z"/>
<path d="M7717 1641 c-26 -10 -69 -33 -94 -52 -104 -77 -150 -107 -193 -122
-85 -32 -127 -20 -228 62 -73 58 -140 39 -128 -37 9 -58 79 -122 183 -166 46
-20 128 -19 199 4 58 19 139 58 161 79 34 32 123 91 140 94 10 1 23 5 28 8 10
6 27 -2 106 -56 62 -41 80 -51 116 -58 34 -7 106 15 178 52 63 34 83 28 164
-47 94 -87 278 -119 412 -71 104 37 197 123 199 182 0 27 -38 59 -68 56 -15
-2 -40 -15 -57 -30 -16 -15 -59 -42 -94 -59 -117 -58 -225 -37 -336 66 -94 88
-152 94 -280 29 -100 -51 -111 -51 -170 5 -77 73 -154 93 -238 61z"/>
<path d="M8091 1237 c-43 -18 -47 -19 -96 -3 -77 24 -102 21 -151 -19 -36 -30
-50 -35 -92 -35 -39 0 -57 6 -80 25 -60 51 -139 23 -127 -45 10 -54 24 -71 88
-100 97 -43 115 -45 193 -14 38 15 73 30 77 34 5 4 40 0 78 -8 67 -15 72 -14
122 6 29 12 60 22 70 22 18 0 91 -42 102 -59 3 -6 29 -18 58 -27 50 -16 55
-15 123 5 83 25 105 45 111 103 5 47 -5 59 -64 72 -24 6 -34 3 -45 -12 -14
-20 -46 -39 -65 -38 -6 1 -23 11 -37 24 -15 12 -28 22 -30 22 -3 0 -26 13 -53
30 -62 38 -123 44 -182 17z"/>
</g>
</svg>
